<?xml version="1.0" encoding="UTF-8"?>
<svg id="Layer_1" xmlns="http://www.w3.org/2000/svg" version="1.1" viewBox="0 0 90.71 90.71">
  <!-- Generator: Adobe Illustrator 30.0.0, SVG Export Plug-In . SVG Version: 2.1.1 Build 123)  -->
  <defs>
    <style>
      .st0 {
        fill: #6eed4a;
      }

      .st1 {
        opacity: .6;
      }

      .st2 {
        fill: #54c638;
      }

      .st3 {
        fill: #3a682e;
      }

      .st4 {
        fill: #294c22;
      }
    </style>
  </defs>
  <path class="st4" d="M45.35.12C20.31.12,0,20.4,0,45.41s20.31,45.29,45.35,45.29,45.35-20.28,45.35-45.29c0-25.02-20.31-45.3-45.35-45.3Z"/>
  <path class="st3" d="M90.71,45.64c0-.08,0-.15,0-.23,0-.05,0-.09,0-.14h-2.67v-8.12h1.92c-.02-.12-.05-.25-.07-.37h-1.85v-6.72c-.12-.33-.24-.65-.37-.98v7.7h-8.14v-8.12h7.97c-.05-.12-.1-.24-.15-.37h-7.82v-8.13h3.48c-.08-.12-.17-.24-.25-.37h-3.23v-4.16c-.12-.14-.24-.27-.37-.41v4.58h-8.14v-8.13h4.59c-.14-.12-.27-.24-.41-.37h-4.17v-3.24c-.12-.08-.24-.17-.37-.25v3.49h-8.14V3.48c-.12-.05-.24-.1-.37-.15v7.98h-8.13V3.19h7.77c-.32-.13-.65-.25-.97-.37h-6.8V.95c-.12-.02-.25-.05-.37-.07v1.95h-8.13V.12c-.06,0-.12,0-.18,0-.06,0-.13,0-.19,0v2.7h-8.13V.88c-.12.02-.25.05-.37.07v1.87h-6.78c-.33.12-.65.24-.97.37h7.75v8.13h-8.13V3.34c-.12.05-.24.1-.37.15v7.83h-8.14v-3.48c-.12.08-.24.17-.37.25v3.23h-4.16c-.14.12-.28.24-.41.37h4.57v8.13h-8.14v-4.56c-.12.14-.24.27-.37.41v4.15h-3.22c-.08.12-.17.24-.25.37h3.47v8.13H3.35c-.05.12-.1.24-.15.37h7.95v8.12H3.02v-7.66c-.13.33-.25.65-.37.98v6.68H.83c-.02.12-.05.25-.07.37h1.9v8.12H0s0,.09,0,.14c0,.08,0,.15,0,.23h2.65v8.12H.77c.02.12.05.25.07.37h1.81v6.59c.12.33.24.66.37.98v-7.57h8.14v8.12H3.24c.05.12.1.25.15.37h7.77v8.12h-3.41c.08.12.17.25.26.37h3.15v4.05c.12.14.24.27.37.41v-4.46h8.14v8.12h-4.47c.14.12.27.24.41.37h4.06v3.14c.12.08.24.17.37.25v-3.39h8.14v7.73c.12.05.24.1.37.15v-7.88h8.13v8.13h-7.51c.33.13.66.25.99.37h6.52v1.78c.12.02.25.05.37.07v-1.85h8.13v2.61c.06,0,.13,0,.19,0,.06,0,.12,0,.18,0v-2.61h8.13v1.86c.12-.02.25-.05.37-.07v-1.78h6.54c.33-.12.66-.24.99-.37h-7.53v-8.13h8.13v7.89c.12-.05.24-.1.37-.15v-7.74h8.14v3.4c.12-.08.24-.17.37-.25v-3.15h4.07c.14-.12.27-.24.41-.37h-4.48v-8.12h8.14v4.48c.12-.14.24-.27.37-.41v-4.07h3.17c.09-.12.17-.25.26-.37h-3.42v-8.12h7.78c.05-.12.1-.25.15-.37h-7.93v-8.12h8.14v7.61c.13-.32.25-.65.37-.98v-6.63h1.83c.02-.12.05-.25.07-.37h-1.9v-8.12h2.67ZM11.16,53.76H3.02v-8.12h8.14v8.12ZM11.16,45.27H3.02v-8.12h8.14v8.12ZM19.66,70.74h-8.14v-8.12h8.14v8.12ZM19.66,62.25h-8.14v-8.12h8.14v8.12ZM19.66,53.76h-8.14v-8.12h8.14v8.12ZM19.66,45.27h-8.14v-8.12h8.14v8.12ZM19.66,36.78h-8.14v-8.12h8.14v8.12ZM19.66,28.3h-8.14v-8.13h8.14v8.13ZM28.16,79.24h-8.14v-8.12h8.14v8.12ZM28.16,70.74h-8.14v-8.12h8.14v8.12ZM28.16,62.25h-8.14v-8.12h8.14v8.12ZM28.16,53.76h-8.14v-8.12h8.14v8.12ZM28.16,45.27h-8.14v-8.12h8.14v8.12ZM28.16,36.78h-8.14v-8.12h8.14v8.12ZM28.16,28.3h-8.14v-8.13h8.14v8.13ZM28.16,19.81h-8.14v-8.13h8.14v8.13ZM36.66,79.24h-8.13v-8.12h8.13v8.12ZM36.66,70.74h-8.13v-8.12h8.13v8.12ZM36.66,62.25h-8.13v-8.12h8.13v8.12ZM36.66,53.76h-8.13v-8.12h8.13v8.12ZM36.66,45.27h-8.13v-8.12h8.13v8.12ZM36.66,36.78h-8.13v-8.12h8.13v8.12ZM36.66,28.3h-8.13v-8.13h8.13v8.13ZM36.66,19.81h-8.13v-8.13h8.13v8.13ZM45.16,87.73h-8.13v-8.13h8.13v8.13ZM45.16,79.24h-8.13v-8.12h8.13v8.12ZM45.16,70.74h-8.13v-8.12h8.13v8.12ZM45.16,62.25h-8.13v-8.12h8.13v8.12ZM45.16,53.76h-8.13v-8.12h8.13v8.12ZM45.16,45.27h-8.13v-8.12h8.13v8.12ZM45.16,36.78h-8.13v-8.12h8.13v8.12ZM45.16,28.3h-8.13v-8.13h8.13v8.13ZM45.16,19.81h-8.13v-8.13h8.13v8.13ZM45.16,11.32h-8.13V3.19h8.13v8.13ZM53.66,87.73h-8.13v-8.13h8.13v8.13ZM53.66,79.24h-8.13v-8.12h8.13v8.12ZM53.66,70.74h-8.13v-8.12h8.13v8.12ZM53.66,62.25h-8.13v-8.12h8.13v8.12ZM53.66,53.76h-8.13v-8.12h8.13v8.12ZM53.66,45.27h-8.13v-8.12h8.13v8.12ZM53.66,36.78h-8.13v-8.12h8.13v8.12ZM53.66,28.3h-8.13v-8.13h8.13v8.13ZM53.66,19.81h-8.13v-8.13h8.13v8.13ZM53.66,11.32h-8.13V3.19h8.13v8.13ZM62.17,79.24h-8.13v-8.12h8.13v8.12ZM62.17,70.74h-8.13v-8.12h8.13v8.12ZM62.17,62.25h-8.13v-8.12h8.13v8.12ZM62.17,53.76h-8.13v-8.12h8.13v8.12ZM62.17,45.27h-8.13v-8.12h8.13v8.12ZM62.17,36.78h-8.13v-8.12h8.13v8.12ZM62.17,28.3h-8.13v-8.13h8.13v8.13ZM62.17,19.81h-8.13v-8.13h8.13v8.13ZM70.67,79.24h-8.14v-8.12h8.14v8.12ZM70.67,70.74h-8.14v-8.12h8.14v8.12ZM70.67,62.25h-8.14v-8.12h8.14v8.12ZM70.67,53.76h-8.14v-8.12h8.14v8.12ZM70.67,45.27h-8.14v-8.12h8.14v8.12ZM70.67,36.78h-8.14v-8.12h8.14v8.12ZM70.67,28.3h-8.14v-8.13h8.14v8.13ZM70.67,19.81h-8.14v-8.13h8.14v8.13ZM79.17,70.74h-8.14v-8.12h8.14v8.12ZM79.17,62.25h-8.14v-8.12h8.14v8.12ZM79.17,53.76h-8.14v-8.12h8.14v8.12ZM79.17,45.27h-8.14v-8.12h8.14v8.12ZM79.17,36.78h-8.14v-8.12h8.14v8.12ZM79.17,28.3h-8.14v-8.13h8.14v8.13ZM87.67,53.76h-8.14v-8.12h8.14v8.12ZM87.67,45.27h-8.14v-8.12h8.14v8.12Z"/>
  <g>
    <path class="st4" d="M41.6,45.69c.13,1.85,1.62,3.34,3.48,3.47v-3.47h-3.48Z"/>
    <path class="st4" d="M41.6,45.14h3.48v-3.47c-1.86.13-3.34,1.62-3.48,3.47Z"/>
    <path class="st4" d="M45.63,45.69v3.47c1.86-.13,3.34-1.62,3.48-3.47h-3.48Z"/>
    <path class="st4" d="M45.63,41.67v3.47h3.48c-.13-1.85-1.62-3.34-3.48-3.47Z"/>
  </g>
  <path class="st2" d="M90.71,45.14h-7.77c-.15-20.48-16.8-37.11-37.31-37.26V.12c-.09,0-.18,0-.27,0s-.18,0-.27,0v7.76c-20.51.15-37.16,16.78-37.31,37.26H0c0,.09,0,.18,0,.27s0,.18,0,.27h7.77c.15,20.48,16.8,37.11,37.31,37.26v7.76c.09,0,.18,0,.27,0s.18,0,.27,0v-7.76c20.51-.15,37.16-16.78,37.31-37.26h7.77c0-.09,0-.18,0-.27,0-.09,0-.18,0-.27ZM45.08,82.4c-20.2-.15-36.61-16.53-36.76-36.71h8.59c.15,15.45,12.7,27.98,28.17,28.13v8.58ZM45.08,73.27c-15.16-.15-27.47-12.44-27.62-27.58h8.23c.15,10.61,8.76,19.22,19.39,19.37v8.22ZM45.08,64.5c-10.33-.15-18.7-8.51-18.84-18.82h7.41c.14,6.23,5.19,11.28,11.43,11.42v7.4h0ZM45.08,56.56c-5.94-.14-10.74-4.94-10.89-10.87h6.86c.14,2.16,1.87,3.89,4.03,4.02v6.85ZM45.08,49.16c-1.86-.13-3.34-1.62-3.48-3.47h3.48v3.47ZM45.08,45.14h-3.48c.13-1.85,1.62-3.34,3.48-3.47v3.47ZM45.08,41.12c-2.16.14-3.89,1.87-4.03,4.02h-6.86c.14-5.93,4.95-10.73,10.89-10.87v6.85ZM45.08,33.72c-6.24.14-11.29,5.19-11.43,11.42h-7.41c.15-10.31,8.52-18.67,18.84-18.82v7.4h0ZM45.08,25.77c-10.63.15-19.24,8.75-19.39,19.37h-8.23c.15-15.14,12.45-27.43,27.62-27.58v8.22h0ZM45.08,17.01c-15.47.15-28.02,12.68-28.17,28.13h-8.59c.15-20.18,16.55-36.56,36.76-36.71v8.58ZM45.63,17.56c15.16.15,27.47,12.44,27.62,27.58h-8.23c-.15-10.61-8.76-19.22-19.39-19.37v-8.22h0ZM45.63,26.32c10.33.15,18.7,8.51,18.84,18.82h-7.41c-.14-6.23-5.19-11.28-11.43-11.42v-7.4h0ZM45.63,34.27c5.94.14,10.74,4.94,10.89,10.87h-6.86c-.14-2.16-1.87-3.89-4.03-4.02v-6.85h0ZM45.63,41.67c1.86.13,3.34,1.62,3.48,3.47h-3.48v-3.47ZM45.63,45.69h3.48c-.13,1.85-1.62,3.34-3.48,3.47v-3.47h0ZM45.63,49.71c2.16-.14,3.89-1.87,4.03-4.02h6.86c-.14,5.93-4.95,10.73-10.89,10.87v-6.85h0ZM45.63,57.11c6.24-.14,11.29-5.19,11.43-11.42h7.41c-.15,10.31-8.52,18.67-18.84,18.82v-7.4ZM45.63,65.05c10.63-.15,19.24-8.75,19.39-19.37h8.23c-.15,15.14-12.45,27.43-27.62,27.58v-8.22h0ZM45.63,82.4v-8.58c15.47-.15,28.02-12.68,28.17-28.13h8.59c-.15,20.18-16.55,36.56-36.76,36.71ZM73.79,45.14c-.15-15.45-12.7-27.98-28.17-28.13v-8.58c20.2.15,36.61,16.53,36.76,36.71h-8.59Z"/>
  <path class="st0" d="M59.87,2.49l-14.61,43.1L62.06,3.32c-.72-.29-1.45-.57-2.19-.82Z"/>
  <g class="st1">
    <path class="st0" d="M45.25,0v45.6L59.87,2.49C55.28.9,50.37.03,45.25,0Z"/>
  </g>
  <g>
    <circle class="st0" cx="18.84" cy="54.45" r="2.38"/>
    <circle class="st0" cx="68.38" cy="61.75" r="2.38"/>
  </g>
</svg>